<svg width="69" height="69" viewBox="0 0 69 69" fill="none" xmlns="http://www.w3.org/2000/svg">
<path fill-rule="evenodd" clip-rule="evenodd" d="M19.7417 0.783447C9.2529 0.783447 0.75 9.28634 0.75 19.7752V49.3917C0.75 59.8806 9.2529 68.3834 19.7417 68.3834H49.3582C59.8471 68.3834 68.35 59.8806 68.35 49.3917V19.7752C68.35 9.28634 59.8471 0.783447 49.3582 0.783447H19.7417ZM19.4774 7.02525C12.5826 7.02525 6.99329 12.6145 6.99329 19.5093V49.6571C6.99329 56.5518 12.5826 62.1412 19.4774 62.1412H49.4923C56.3871 62.1412 61.9764 56.5519 61.9764 49.6571V19.5093C61.9764 12.6146 56.3871 7.02525 49.4923 7.02525H19.4774Z" fill="#959698"/>
<path fill-rule="evenodd" clip-rule="evenodd" d="M34.5498 52.0475C44.1218 52.0475 51.8814 44.2879 51.8814 34.7159C51.8814 25.1439 44.1218 17.3843 34.5498 17.3843C24.9778 17.3843 17.2181 25.1439 17.2181 34.7159C17.2181 44.2879 24.9778 52.0475 34.5498 52.0475ZM34.5488 45.9384C40.8201 45.9384 45.904 40.8545 45.904 34.5832C45.904 28.3119 40.8201 23.228 34.5488 23.228C28.2775 23.228 23.1936 28.3119 23.1936 34.5832C23.1936 40.8545 28.2775 45.9384 34.5488 45.9384Z" fill="#959698"/>
<circle cx="52.7449" cy="16.5216" r="4.05069" fill="#959698"/>
</svg>
