<svg width="153" height="147" viewBox="0 0 153 147" fill="none" xmlns="http://www.w3.org/2000/svg">
<path d="M9.07133 102.768L52.3593 82.4186V101.512L27.4539 112.064C23.6287 114.006 22.8802 115.405 24.6866 118.596C26.8611 121.108 34.5699 120.605 39.116 118.596L52.3593 112.064V128.645C47.6154 130.052 40.6314 130.403 37.7323 130.403C23.2107 130.488 6.83492 123.807 4.12977 120.605C-1.60233 113.822 -0.218553 107.29 9.07133 102.768Z" fill="white"/>
<path d="M57.3009 0.266602V136.935L81.4157 146.733V30.6653C81.8265 26.4598 82.6062 24.768 85.9619 24.1334C88.3458 23.8261 91.6743 28.3803 91.4964 30.6653V82.4186C94.7022 84.8309 96.8837 85.5896 101.38 85.9358C112.979 84.8155 118.14 81.0494 118.971 54.7834C119.055 36.2661 115.557 27.7712 101.38 16.8477C85.0791 7.70127 75.3209 4.38141 57.3009 0.266602Z" fill="white"/>
<path d="M85.9619 115.33V96.4874C93.5363 93.5692 98.0332 92.2425 107.112 91.2116C118.181 89.9546 129.843 90.2067 147.435 99.5022C152.772 102.322 156.527 113.069 140.912 120.605L85.9619 145.226V126.635L125.89 109.049C130.665 106.89 131.029 104.024 127.866 102.768C123.518 100.758 119.169 101.01 115.018 102.768L85.9619 115.33Z" fill="white"/>
</svg>
