<svg width="86" height="69" viewBox="0 0 86 69" fill="none" xmlns="http://www.w3.org/2000/svg">
<path d="M42.0403 21.6936C23.6746 20.9776 10.4013 9.73332 6.06029 4.20067C-0.284206 14.6151 6.86726 23.5107 11.2361 26.6567C9.49967 26.852 5.33679 25.5448 3.4724 24.8667C4.07346 36.3226 13.0726 40.7595 17.4971 41.546C15.0928 42.262 11.4309 42.2241 9.90038 42.1156C12.9725 51.3584 21.9215 53.6691 26.0121 53.6691C18.3319 60.5686 5.61506 61.4256 0.216675 60.9917C16.9962 70.7552 42.8751 72.7079 61.3242 55.2963C73.3674 42.0771 76.1294 33.6486 76.8515 17.5441C81.5932 14.2245 84.3926 10.4113 85.1995 8.91969C83.1292 10.0913 77.9924 11.0351 75.6828 11.3606C79.957 9.14751 82.3612 4.30915 83.029 2.16661C80.558 3.92404 74.6532 5.61095 72.0097 6.23473C67.7478 2.27458 64.8065 1.23185 58.9033 0.783447C46.4647 1.51571 40.2872 10.6283 42.0403 21.6936Z" fill="#959698"/>
</svg>
